{
  "accessors": [
    {
      "bufferView": 2,
      "componentType": 5126,
      "count": 62351,
      "max": [
        -0.09882049262523651,
        0.036147426813840866,
        1.4761276245117188
      ],
      "min": [
        -0.24020357429981232,
        -0.036329735070466995,
        0.036485396325588226
      ],
      "type": "VEC3"
    },
    {
      "bufferView": 2,
      "byteOffset": 748212,
      "componentType": 5126,
      "count": 62351,
      "type": "VEC3"
    },
    {
      "bufferView": 3,
      "componentType": 5126,
      "count": 62351,
      "type": "VEC4"
    },
    {
      "bufferView": 1,
      "componentType": 5126,
      "count": 62351,
      "type": "VEC2"
    },
    {
      "bufferView": 0,
      "componentType": 5125,
      "count": 357984,
      "type": "SCALAR"
    },
    {
      "bufferView": 2,
      "byteOffset": 1496424,
      "componentType": 5126,
      "count": 11081,
      "max": [
        -0.10472024232149124,
        0.030011946335434914,
        1.5029089450836182
      ],
      "min": [
        -0.23353973031044006,
        -0.03079884499311447,
        0.00764633109793067
      ],
      "type": "VEC3"
    },
    {
      "bufferView": 2,
      "byteOffset": 1629396,
      "componentType": 5126,
      "count": 11081,
      "type": "VEC3"
    },
    {
      "bufferView": 3,
      "byteOffset": 997616,
      "componentType": 5126,
      "count": 11081,
      "type": "VEC4"
    },
    {
      "bufferView": 1,
      "byteOffset": 498808,
      "componentType": 5126,
      "count": 11081,
      "type": "VEC2"
    },
    {
      "bufferView": 0,
      "byteOffset": 1431936,
      "componentType": 5125,
      "count": 62208,
      "type": "SCALAR"
    },
    {
      "bufferView": 2,
      "byteOffset": 1762368,
      "componentType": 5126,
      "count": 25456,
      "max": [
        0.28070417046546936,
        0.013040773570537567,
        1.4536699056625366
      ],
      "min": [
        -0.19923821091651917,
        -0.013759516179561615,
        1.1815696954727173
      ],
      "type": "VEC3"
    },
    {
      "bufferView": 2,
      "byteOffset": 2067840,
      "componentType": 5126,
      "count": 25456,
      "type": "VEC3"
    },
    {
      "bufferView": 3,
      "byteOffset": 1174912,
      "componentType": 5126,
      "count": 25456,
      "type": "VEC4"
    },
    {
      "bufferView": 1,
      "byteOffset": 587456,
      "componentType": 5126,
      "count": 25456,
      "type": "VEC2"
    },
    {
      "bufferView": 0,
      "byteOffset": 1680768,
      "componentType": 5125,
      "count": 139770,
      "type": "SCALAR"
    }
  ],
  "asset": {
    "generator": "fab-model-conversion",
    "version": "2.0"
  },
  "bufferViews": [
    {
      "buffer": 0,
      "byteLength": 2239848,
      "target": 34963
    },
    {
      "buffer": 0,
      "byteLength": 791104,
      "byteOffset": 2239848,
      "byteStride": 8,
      "target": 34962
    },
    {
      "buffer": 0,
      "byteLength": 2373312,
      "byteOffset": 3030952,
      "byteStride": 12,
      "target": 34962
    },
    {
      "buffer": 0,
      "byteLength": 1582208,
      "byteOffset": 5404264,
      "byteStride": 16,
      "target": 34962
    }
  ],
  "buffers": [
    {
      "byteLength": 6986472,
      "uri": "scene.bin"
    }
  ],
  "images": [
    {
      "uri": "textures/hatchet_baseColor.jpeg"
    },
    {
      "uri": "textures/hatchet_metallicRoughness.png"
    },
    {
      "uri": "textures/hatchet_normal.jpeg"
    }
  ],
  "materials": [
    {
      "doubleSided": true,
      "name": "hatchet",
      "normalTexture": {
        "index": 2
      },
      "pbrMetallicRoughness": {
        "baseColorTexture": {
          "index": 0
        },
        "metallicRoughnessTexture": {
          "index": 1
        }
      }
    }
  ],
  "meshes": [
    {
      "name": "hatchet_2_low_hatchet_0",
      "primitives": [
        {
          "attributes": {
            "NORMAL": 1,
            "POSITION": 0,
            "TANGENT": 2,
            "TEXCOORD_0": 3
          },
          "indices": 4,
          "material": 0,
          "mode": 4
        }
      ]
    },
    {
      "name": "hatchet_staff_low_hatchet_0",
      "primitives": [
        {
          "attributes": {
            "NORMAL": 6,
            "POSITION": 5,
            "TANGENT": 7,
            "TEXCOORD_0": 8
          },
          "indices": 9,
          "material": 0,
          "mode": 4
        }
      ]
    },
    {
      "name": "hatchet_1_low_hatchet_0",
      "primitives": [
        {
          "attributes": {
            "NORMAL": 11,
            "POSITION": 10,
            "TANGENT": 12,
            "TEXCOORD_0": 13
          },
          "indices": 14,
          "material": 0,
          "mode": 4
        }
      ]
    }
  ],
  "nodes": [
    {
      "children": [
        1
      ],
      "matrix": [
        1.0,
        0.0,
        0.0,
        0.0,
        0.0,
        2.220446049250313e-16,
        -1.0,
        0.0,
        0.0,
        1.0,
        2.220446049250313e-16,
        0.0,
        0.0,
        0.0,
        0.0,
        1.0
      ],
      "name": "Sketchfab_model"
    },
    {
      "children": [
        2
      ],
      "matrix": [
        1.0,
        0.0,
        0.0,
        0.0,
        0.0,
        0.0,
        1.0,
        0.0,
        0.0,
        -1.0,
        0.0,
        0.0,
        0.0,
        0.0,
        0.0,
        1.0
      ],
      "name": "a4195d9839f04ab6853c38f2e18a049b.fbx"
    },
    {
      "children": [
        3,
        5,
        7
      ],
      "name": "RootNode"
    },
    {
      "children": [
        4
      ],
      "matrix": [
        100.0,
        0.0,
        0.0,
        0.0,
        0.0,
        -1.629206793918314e-05,
        -99.99999999999868,
        0.0,
        0.0,
        99.99999999999868,
        -1.629206793918314e-05,
        0.0,
        0.0,
        0.0,
        0.0,
        1.0
      ],
      "name": "hatchet_2_low"
    },
    {
      "mesh": 0,
      "name": "hatchet_2_low_hatchet_0"
    },
    {
      "children": [
        6
      ],
      "matrix": [
        100.0,
        0.0,
        0.0,
        0.0,
        0.0,
        -1.629206793918314e-05,
        -99.99999999999868,
        0.0,
        0.0,
        99.99999999999868,
        -1.629206793918314e-05,
        0.0,
        0.0,
        0.0,
        0.0,
        1.0
      ],
      "name": "hatchet_staff_low"
    },
    {
      "mesh": 1,
      "name": "hatchet_staff_low_hatchet_0"
    },
    {
      "children": [
        8
      ],
      "matrix": [
        100.0,
        0.0,
        0.0,
        0.0,
        0.0,
        -1.629206793918314e-05,
        -99.99999999999868,
        0.0,
        0.0,
        99.99999999999868,
        -1.629206793918314e-05,
        0.0,
        0.0,
        0.0,
        0.0,
        1.0
      ],
      "name": "hatchet_1_low"
    },
    {
      "mesh": 2,
      "name": "hatchet_1_low_hatchet_0"
    }
  ],
  "samplers": [
    {
      "magFilter": 9729,
      "minFilter": 9987,
      "wrapS": 10497,
      "wrapT": 10497
    }
  ],
  "scene": 0,
  "scenes": [
    {
      "name": "Sketchfab_Scene",
      "nodes": [
        0
      ]
    }
  ],
  "textures": [
    {
      "sampler": 0,
      "source": 0
    },
    {
      "sampler": 0,
      "source": 1
    },
    {
      "sampler": 0,
      "source": 2
    }
  ]
}
